# xmcd CD database file generated by OrangeCD 6.3
#
# Track frame offsets:
#	150
#	20943
#	35330
#	52126
#	63065
#	78127
#	93968
#	104879
#	120047
#	136713
#	151911
#	168811
#
# Disc length: 2440 seconds
#
# Revision: 2
# Processed by: cddbd v1.5.2PL0 Copyright (c) Steve Scherf et al.
# Submitted via: OrangeCD 6.3
#
DISCID=8b09860c
DTITLE=Aryn Michelle - Lockless Heart
DYEAR=1900
DGENRE=Vocal
TTITLE0=Lockless Heart
TTITLE1=Shake Me
TTITLE2=Heart on a String
TTITLE3=City Life
TTITLE4=Amy Beth
TTITLE5=America
TTITLE6=Never Was My Own
TTITLE7=Break Me With Your Hands
TTITLE8=Who She Was
TTITLE9=Embraces
TTITLE10=You Will Sustain
TTITLE11=I'm Your Wall
EXTD=
EXTT0=
EXTT1=
EXTT2=
EXTT3=
EXTT4=
EXTT5=
EXTT6=
EXTT7=
EXTT8=
EXTT9=
EXTT10=
EXTT11=
PLAYORDER=
